<?xml version="1.0" encoding="UTF-8"?>
<svg xmlns="http://www.w3.org/2000/svg" xmlns:xlink="http://www.w3.org/1999/xlink" width="721.3pt" height="485.4pt" viewBox="239.4 357.3 721.3 485.4">
<rect x="239.4" y="357.3" width="721.3" height="485.4" fill="rgb(0%, 0%, 0%)" fill-opacity="1"/>
<path fill-rule="nonzero" fill="rgb(100%, 100%, 100%)" fill-opacity="1" d="M 331.910156 777.804688 C 330.585938 777.804688 329.476562 777.351562 328.574219 776.449219 C 327.671875 775.546875 327.21875 774.4375 327.21875 773.113281 L 327.21875 707.335938 L 336.601562 707.335938 L 336.601562 773.113281 C 336.601562 774.4375 336.152344 775.546875 335.25 776.449219 C 334.347656 777.351562 333.234375 777.804688 331.910156 777.804688 M 307.730469 715.996094 C 306.46875 715.996094 305.429688 715.59375 304.617188 714.78125 C 303.804688 713.96875 303.398438 712.929688 303.398438 711.667969 C 303.398438 710.40625 303.804688 709.367188 304.617188 708.554688 C 305.429688 707.742188 306.46875 707.335938 307.730469 707.335938 L 356 707.335938 C 357.265625 707.335938 358.300781 707.742188 359.113281 708.554688 C 359.925781 709.367188 360.332031 710.40625 360.332031 711.667969 C 360.332031 712.929688 359.925781 713.96875 359.113281 714.78125 C 358.300781 715.59375 357.265625 715.996094 356 715.996094 Z M 307.730469 715.996094 "/>
<path fill-rule="nonzero" fill="rgb(100%, 100%, 100%)" fill-opacity="1" d="M 374.5 762.285156 L 378.109375 754.523438 L 413.476562 754.523438 L 417.085938 762.285156 Z M 369.714844 777.804688 C 368.03125 777.804688 366.738281 777.082031 365.835938 775.636719 C 364.933594 774.195312 364.84375 772.660156 365.566406 771.035156 L 390.917969 710.496094 C 391.824219 708.390625 393.296875 707.335938 395.339844 707.335938 C 397.507812 707.335938 398.980469 708.390625 399.761719 710.496094 L 425.207031 771.21875 C 425.867188 772.902344 425.761719 774.421875 424.890625 775.773438 C 424.015625 777.128906 422.707031 777.804688 420.964844 777.804688 C 420.0625 777.804688 419.207031 777.546875 418.394531 777.035156 C 417.582031 776.523438 416.996094 775.816406 416.632812 774.917969 L 394.257812 719.335938 L 396.785156 719.335938 L 374.046875 774.917969 C 373.625 775.878906 373.007812 776.601562 372.199219 777.082031 C 371.386719 777.5625 370.558594 777.804688 369.714844 777.804688 "/>
<path fill-rule="nonzero" fill="rgb(100%, 100%, 100%)" fill-opacity="1" d="M 449.65625 777.804688 C 448.332031 777.804688 447.21875 777.351562 446.316406 776.449219 C 445.414062 775.546875 444.964844 774.4375 444.964844 773.113281 L 444.964844 712.027344 C 444.964844 710.644531 445.414062 709.519531 446.316406 708.644531 C 447.21875 707.773438 448.332031 707.335938 449.65625 707.335938 C 451.039062 707.335938 452.167969 707.773438 453.039062 708.644531 C 453.910156 709.519531 454.347656 710.644531 454.347656 712.027344 L 454.347656 773.113281 C 454.347656 774.4375 453.910156 775.546875 453.039062 776.449219 C 452.167969 777.351562 451.039062 777.804688 449.65625 777.804688 "/>
<path fill-rule="nonzero" fill="rgb(100%, 100%, 100%)" fill-opacity="1" d="M 486.015625 777.804688 C 484.691406 777.804688 483.59375 777.351562 482.722656 776.449219 C 481.847656 775.546875 481.414062 774.4375 481.414062 773.113281 L 481.414062 712.027344 C 481.414062 710.707031 481.863281 709.59375 482.765625 708.691406 C 483.667969 707.789062 484.753906 707.335938 486.015625 707.335938 C 487.339844 707.335938 488.449219 707.789062 489.351562 708.691406 C 490.257812 709.59375 490.707031 710.707031 490.707031 712.027344 L 490.707031 768.417969 L 523.367188 768.417969 C 524.691406 768.417969 525.804688 768.871094 526.707031 769.773438 C 527.609375 770.675781 528.058594 771.789062 528.058594 773.113281 C 528.058594 774.4375 527.609375 775.546875 526.707031 776.449219 C 525.804688 777.351562 524.691406 777.804688 523.367188 777.804688 Z M 486.015625 777.804688 "/>
<path fill-rule="nonzero" fill="rgb(100%, 100%, 100%)" fill-opacity="1" d="M 570.738281 778.707031 C 566.886719 778.707031 563.21875 778.101562 559.730469 776.902344 C 556.242188 775.699219 553.203125 774.015625 550.617188 771.847656 C 548.03125 769.683594 546.136719 767.1875 544.933594 764.359375 C 544.332031 763.097656 544.34375 761.925781 544.976562 760.839844 C 545.609375 759.757812 546.675781 759.066406 548.179688 758.765625 C 549.261719 758.527344 550.332031 758.691406 551.382812 759.261719 C 552.433594 759.835938 553.234375 760.691406 553.773438 761.835938 C 554.496094 763.339844 555.683594 764.722656 557.339844 765.984375 C 558.992188 767.246094 560.992188 768.269531 563.339844 769.050781 C 565.683594 769.835938 568.148438 770.226562 570.738281 770.226562 C 573.625 770.226562 576.285156 769.773438 578.722656 768.871094 C 581.160156 767.96875 583.128906 766.660156 584.632812 764.945312 C 586.132812 763.230469 586.886719 761.109375 586.886719 758.585938 C 586.886719 755.398438 585.636719 752.539062 583.144531 750.015625 C 580.644531 747.488281 576.542969 745.925781 570.828125 745.320312 C 563.367188 744.601562 557.503906 742.40625 553.234375 738.734375 C 548.960938 735.066406 546.828125 730.523438 546.828125 725.109375 C 546.828125 721.140625 547.9375 717.773438 550.164062 715.007812 C 552.390625 712.238281 555.414062 710.132812 559.234375 708.691406 C 563.050781 707.246094 567.308594 706.523438 572 706.523438 C 575.667969 706.523438 578.871094 707.035156 581.609375 708.058594 C 584.34375 709.082031 586.738281 710.492188 588.78125 712.300781 C 590.828125 714.101562 592.601562 716.238281 594.105469 718.707031 C 594.949219 720.027344 595.292969 721.277344 595.144531 722.449219 C 594.992188 723.621094 594.40625 724.542969 593.382812 725.199219 C 592.242188 725.921875 591.007812 726.074219 589.683594 725.652344 C 588.359375 725.234375 587.367188 724.449219 586.707031 723.308594 C 585.746094 721.5625 584.570312 720.089844 583.1875 718.886719 C 581.804688 717.683594 580.179688 716.734375 578.316406 716.042969 C 576.449219 715.351562 574.257812 715.007812 571.730469 715.007812 C 567.277344 714.945312 563.546875 715.773438 560.542969 717.488281 C 557.535156 719.199219 556.03125 721.835938 556.03125 725.382812 C 556.03125 727.1875 556.496094 728.917969 557.429688 730.570312 C 558.359375 732.226562 560.074219 733.652344 562.570312 734.855469 C 565.066406 736.058594 568.664062 736.902344 573.351562 737.382812 C 580.511719 738.105469 586.089844 740.285156 590.089844 743.925781 C 594.089844 747.5625 596.089844 752.359375 596.089844 758.3125 C 596.089844 761.742188 595.382812 764.722656 593.96875 767.246094 C 592.554688 769.773438 590.660156 771.894531 588.285156 773.605469 C 585.910156 775.320312 583.203125 776.601562 580.164062 777.441406 C 577.128906 778.285156 573.984375 778.707031 570.738281 778.707031 "/>
<path fill-rule="nonzero" fill="rgb(100%, 100%, 100%)" fill-opacity="1" d="M 636.691406 777.804688 C 635.367188 777.804688 634.257812 777.351562 633.355469 776.449219 C 632.453125 775.546875 632 774.4375 632 773.113281 L 632 707.335938 L 641.382812 707.335938 L 641.382812 773.113281 C 641.382812 774.4375 640.933594 775.546875 640.03125 776.449219 C 639.128906 777.351562 638.015625 777.804688 636.691406 777.804688 M 612.511719 715.996094 C 611.25 715.996094 610.210938 715.59375 609.398438 714.78125 C 608.585938 713.96875 608.179688 712.929688 608.179688 711.667969 C 608.179688 710.40625 608.585938 709.367188 609.398438 708.554688 C 610.210938 707.742188 611.25 707.335938 612.511719 707.335938 L 660.78125 707.335938 C 662.046875 707.335938 663.082031 707.742188 663.894531 708.554688 C 664.707031 709.367188 665.113281 710.40625 665.113281 711.667969 C 665.113281 712.929688 664.707031 713.96875 663.894531 714.78125 C 663.082031 715.59375 662.046875 715.996094 660.78125 715.996094 Z M 612.511719 715.996094 "/>
<path fill-rule="nonzero" fill="rgb(100%, 100%, 100%)" fill-opacity="1" d="M 712.570312 770.222656 C 716.480469 770.222656 720.074219 769.519531 723.355469 768.105469 C 726.632812 766.691406 729.472656 764.738281 731.882812 762.238281 C 734.285156 759.746094 736.132812 756.8125 737.429688 753.441406 C 738.722656 750.074219 739.371094 746.4375 739.371094 742.527344 C 739.371094 738.617188 738.722656 734.976562 737.429688 731.609375 C 736.132812 728.242188 734.285156 725.308594 731.882812 722.8125 C 729.472656 720.316406 726.632812 718.375 723.355469 716.992188 C 720.074219 715.609375 716.480469 714.914062 712.570312 714.914062 C 708.660156 714.914062 705.066406 715.609375 701.789062 716.992188 C 698.511719 718.375 695.683594 720.316406 693.308594 722.8125 C 690.929688 725.308594 689.082031 728.242188 687.757812 731.609375 C 686.4375 734.976562 685.773438 738.617188 685.773438 742.527344 C 685.773438 746.4375 686.4375 750.074219 687.757812 753.441406 C 689.082031 756.8125 690.929688 759.746094 693.308594 762.238281 C 695.683594 764.738281 698.511719 766.691406 701.789062 768.105469 C 705.066406 769.519531 708.660156 770.222656 712.570312 770.222656 M 712.570312 778.707031 C 707.277344 778.707031 702.433594 777.816406 698.046875 776.042969 C 693.65625 774.269531 689.878906 771.773438 686.722656 768.554688 C 683.5625 765.335938 681.113281 761.519531 679.371094 757.097656 C 677.625 752.675781 676.753906 747.820312 676.753906 742.527344 C 676.753906 737.234375 677.625 732.390625 679.371094 728 C 681.113281 723.609375 683.5625 719.804688 686.722656 716.585938 C 689.878906 713.367188 693.65625 710.871094 698.046875 709.09375 C 702.433594 707.324219 707.277344 706.433594 712.570312 706.433594 C 717.863281 706.433594 722.691406 707.324219 727.054688 709.09375 C 731.414062 710.871094 735.1875 713.367188 738.378906 716.585938 C 741.5625 719.804688 744.03125 723.609375 745.773438 728 C 747.519531 732.390625 748.390625 737.234375 748.390625 742.527344 C 748.390625 747.820312 747.519531 752.675781 745.773438 757.097656 C 744.03125 761.519531 741.5625 765.335938 738.378906 768.554688 C 735.1875 771.773438 731.414062 774.269531 727.054688 776.042969 C 722.691406 777.816406 717.863281 778.707031 712.570312 778.707031 "/>
<path fill-rule="nonzero" fill="rgb(100%, 100%, 100%)" fill-opacity="1" d="M 801.894531 778.707031 C 797.023438 778.707031 792.464844 777.789062 788.226562 775.953125 C 783.984375 774.117188 780.285156 771.5625 777.128906 768.285156 C 773.96875 765.007812 771.503906 761.171875 769.730469 756.78125 C 767.957031 752.390625 767.070312 747.640625 767.070312 742.523438 C 767.070312 737.472656 767.957031 732.765625 769.730469 728.40625 C 771.503906 724.046875 773.96875 720.226562 777.128906 716.945312 C 780.285156 713.667969 783.96875 711.097656 788.179688 709.230469 C 792.390625 707.367188 796.960938 706.433594 801.894531 706.433594 C 806.527344 706.433594 810.511719 707.035156 813.851562 708.238281 C 817.191406 709.441406 820.542969 711.429688 823.910156 714.191406 C 824.390625 714.554688 824.769531 714.929688 825.039062 715.320312 C 825.308594 715.714844 825.492188 716.105469 825.582031 716.492188 C 825.671875 716.886719 825.714844 717.351562 825.714844 717.894531 C 825.714844 719.035156 825.308594 719.984375 824.5 720.734375 C 823.683594 721.488281 822.707031 721.90625 821.566406 722 C 820.421875 722.089844 819.308594 721.714844 818.226562 720.871094 C 816 718.945312 813.699219 717.472656 811.324219 716.449219 C 808.949219 715.429688 805.804688 714.917969 801.894531 714.917969 C 798.34375 714.917969 795.007812 715.636719 791.878906 717.082031 C 788.75 718.523438 786 720.511719 783.625 723.035156 C 781.25 725.5625 779.398438 728.496094 778.078125 731.835938 C 776.75 735.171875 776.089844 738.734375 776.089844 742.523438 C 776.089844 746.375 776.75 749.96875 778.078125 753.308594 C 779.398438 756.644531 781.25 759.578125 783.625 762.105469 C 786 764.632812 788.75 766.601562 791.878906 768.015625 C 795.007812 769.429688 798.34375 770.132812 801.894531 770.132812 C 804.960938 770.132812 807.863281 769.609375 810.601562 768.554688 C 813.339844 767.503906 815.972656 766.042969 818.5 764.179688 C 819.582031 763.398438 820.648438 763.050781 821.699219 763.140625 C 822.75 763.230469 823.640625 763.652344 824.363281 764.40625 C 825.082031 765.15625 825.445312 766.195312 825.445312 767.519531 C 825.445312 768.117188 825.324219 768.707031 825.082031 769.277344 C 824.84375 769.851562 824.484375 770.375 824 770.855469 C 820.753906 773.441406 817.28125 775.398438 813.582031 776.722656 C 809.878906 778.042969 805.984375 778.707031 801.894531 778.707031 "/>
<path fill-rule="nonzero" fill="rgb(100%, 100%, 100%)" fill-opacity="1" d="M 854.136719 777.804688 C 852.871094 777.804688 851.773438 777.351562 850.839844 776.449219 C 849.910156 775.546875 849.445312 774.4375 849.445312 773.113281 L 849.445312 712.027344 C 849.445312 710.707031 849.910156 709.59375 850.839844 708.691406 C 851.773438 707.789062 852.871094 707.335938 854.136719 707.335938 C 855.457031 707.335938 856.570312 707.789062 857.472656 708.691406 C 858.375 709.59375 858.828125 710.707031 858.828125 712.027344 L 858.828125 739.097656 L 888.691406 709.230469 C 889.414062 708.507812 890.074219 708.015625 890.675781 707.742188 C 891.277344 707.472656 891.910156 707.335938 892.574219 707.335938 C 894.074219 707.335938 895.15625 707.789062 895.820312 708.691406 C 896.480469 709.59375 896.722656 710.660156 896.542969 711.894531 C 896.363281 713.125 895.789062 714.253906 894.828125 715.277344 L 871.820312 738.375 L 895.28125 770.316406 C 896 771.335938 896.300781 772.433594 896.183594 773.609375 C 896.058594 774.78125 895.640625 775.773438 894.917969 776.585938 C 894.195312 777.398438 893.234375 777.804688 892.03125 777.804688 C 890.34375 777.804688 889.050781 777.140625 888.152344 775.820312 L 865.324219 744.871094 L 858.828125 751.367188 L 858.828125 773.113281 C 858.828125 774.4375 858.375 775.546875 857.472656 776.449219 C 856.570312 777.351562 855.457031 777.804688 854.136719 777.804688 "/>
<path fill-rule="nonzero" fill="rgb(100%, 100%, 100%)" fill-opacity="1" d="M 806.757812 528.628906 C 805.988281 528.628906 804.046875 528.375 799.691406 526.683594 C 789.828125 522.851562 778.9375 522.125 768.667969 524.546875 L 768.667969 511.539062 C 778.9375 513.964844 789.828125 513.238281 799.695312 509.402344 C 804.046875 507.710938 805.988281 507.457031 806.757812 507.457031 C 812.597656 507.457031 817.347656 512.207031 817.347656 518.042969 C 817.347656 523.882812 812.597656 528.628906 806.757812 528.628906 M 763.699219 534.054688 C 763.699219 540.414062 759.144531 545.210938 753.097656 545.210938 C 746.75 545.210938 741.390625 540.101562 741.390625 534.054688 L 741.390625 437.417969 C 741.390625 431.269531 746.394531 426.265625 752.542969 426.265625 C 758.695312 426.265625 763.699219 431.269531 763.699219 437.417969 Z M 728.425781 506.3125 C 727.335938 506.3125 726.449219 505.425781 726.449219 504.335938 L 726.449219 467.140625 C 726.449219 466.050781 727.335938 465.164062 728.425781 465.164062 L 736.421875 465.164062 L 736.421875 506.3125 Z M 701.425781 476.097656 L 721.480469 476.097656 L 721.480469 495.378906 L 701.425781 495.378906 Z M 696.457031 500.957031 C 696.457031 501.796875 695.925781 502.546875 695.132812 502.824219 L 685.285156 506.265625 L 685.285156 465.207031 L 695.132812 468.652344 C 695.925781 468.929688 696.457031 469.679688 696.457031 470.519531 Z M 680.316406 509.703125 C 680.316406 515.703125 675.4375 520.582031 669.4375 520.582031 L 474.375 520.582031 C 468.375 520.582031 463.496094 515.703125 463.496094 509.703125 L 463.496094 461.773438 C 463.496094 455.773438 468.375 450.894531 474.375 450.894531 L 669.4375 450.894531 C 675.4375 450.894531 680.316406 455.773438 680.316406 461.773438 Z M 578.050781 569.636719 L 563.722656 569.636719 L 563.722656 553.390625 C 563.722656 553.269531 563.824219 553.167969 563.949219 553.167969 L 577.824219 553.167969 C 577.949219 553.167969 578.050781 553.269531 578.050781 553.390625 Z M 555.273438 591.707031 L 555.273438 574.832031 C 555.273438 574.707031 555.375 574.605469 555.496094 574.605469 L 586.273438 574.605469 C 586.398438 574.605469 586.5 574.707031 586.5 574.832031 L 586.5 591.707031 Z M 582.960938 525.550781 C 603.082031 525.550781 621.40625 537.277344 629.644531 555.425781 C 635.472656 568.261719 636.582031 579.296875 636.59375 579.40625 C 636.597656 579.449219 636.601562 579.496094 636.609375 579.542969 C 637.148438 583.109375 636.550781 585.933594 634.832031 587.925781 C 632 591.214844 626.859375 591.707031 624.042969 591.707031 L 591.46875 591.707031 L 591.46875 574.832031 C 591.46875 571.96875 589.140625 569.636719 586.273438 569.636719 L 583.019531 569.636719 L 583.019531 553.390625 C 583.019531 550.527344 580.6875 548.199219 577.824219 548.199219 L 563.949219 548.199219 C 561.082031 548.199219 558.753906 550.527344 558.753906 553.390625 L 558.753906 569.636719 L 555.496094 569.636719 C 552.632812 569.636719 550.304688 571.96875 550.304688 574.832031 L 550.304688 591.707031 L 545.191406 591.707031 C 528.167969 591.707031 514.320312 577.859375 514.320312 560.839844 L 514.320312 525.550781 Z M 650.96875 539.371094 C 646.839844 537.90625 641.714844 536.449219 636.226562 535.734375 C 634.867188 535.554688 633.617188 536.515625 633.441406 537.875 C 633.261719 539.238281 634.222656 540.484375 635.582031 540.660156 C 647.652344 542.234375 658.21875 547.859375 658.320312 547.917969 C 658.332031 547.921875 658.339844 547.925781 658.351562 547.929688 C 658.375 547.941406 658.402344 547.957031 658.429688 547.972656 C 685.316406 560.824219 705.621094 585.847656 709.683594 609.914062 C 708.550781 609.429688 707.304688 609.15625 705.992188 609.15625 L 485.160156 609.15625 C 485.84375 608.109375 486.449219 606.855469 486.9375 605.355469 C 488.328125 601.066406 488.328125 596.167969 488.328125 592.90625 L 488.328125 525.550781 L 509.351562 525.550781 L 509.351562 560.839844 C 509.351562 580.601562 525.429688 596.679688 545.191406 596.679688 L 653.429688 596.679688 C 654.800781 596.679688 655.914062 595.566406 655.914062 594.191406 C 655.914062 592.820312 654.800781 591.707031 653.429688 591.707031 L 638.101562 591.707031 C 638.273438 591.53125 638.441406 591.351562 638.601562 591.167969 C 641.292969 588.039062 642.277344 583.902344 641.53125 578.867188 C 641.421875 577.773438 640.175781 566.601562 634.167969 553.371094 C 628.464844 540.800781 618.355469 531.042969 606.128906 525.550781 L 653.800781 525.550781 C 651.519531 528.175781 650.273438 531.492188 650.273438 534.996094 C 650.273438 536.503906 650.519531 537.976562 650.96875 539.371094 M 702.683594 669.019531 L 478.996094 669.019531 C 474.867188 669.019531 471.25 665.742188 471.25 662.007812 L 471.25 626.855469 C 472.570312 627.5625 474.082031 627.96875 475.683594 627.96875 L 705.992188 627.96875 C 707.597656 627.96875 709.109375 627.5625 710.429688 626.855469 L 710.429688 661.269531 C 710.429688 665.542969 706.953125 669.019531 702.683594 669.019531 M 475.683594 614.125 L 705.992188 614.125 C 708.441406 614.125 710.429688 616.117188 710.429688 618.5625 C 710.429688 621.011719 708.441406 623 705.992188 623 L 475.683594 623 C 473.238281 623 471.25 621.011719 471.25 618.5625 C 471.25 616.117188 473.238281 614.125 475.683594 614.125 M 435.449219 499.15625 C 434.8125 499.15625 434.292969 498.636719 434.292969 497.996094 L 434.292969 473.480469 C 434.292969 472.839844 434.8125 472.320312 435.449219 472.320312 L 458.523438 472.320312 L 458.523438 499.15625 Z M 403.535156 492.75 L 395.496094 485.738281 L 403.535156 478.726562 L 429.320312 478.726562 L 429.320312 492.75 Z M 528.824219 432.542969 C 528.824219 432.1875 529.113281 431.898438 529.46875 431.898438 L 552.730469 431.898438 C 553.082031 431.898438 553.371094 432.1875 553.371094 432.542969 L 553.371094 445.921875 L 528.824219 445.921875 Z M 806.757812 502.488281 C 804.742188 502.488281 801.84375 503.234375 797.894531 504.773438 C 788.597656 508.382812 778.292969 508.953125 768.667969 506.425781 L 768.667969 437.417969 C 768.667969 428.527344 761.4375 421.292969 752.542969 421.292969 C 743.652344 421.292969 736.421875 428.527344 736.421875 437.417969 L 736.421875 460.191406 L 728.425781 460.191406 C 724.597656 460.191406 721.480469 463.308594 721.480469 467.140625 L 721.480469 471.125 L 701.425781 471.125 L 701.425781 470.519531 C 701.425781 467.570312 699.558594 464.933594 696.773438 463.960938 L 685.171875 459.902344 C 684.242188 452.042969 677.542969 445.921875 669.4375 445.921875 L 558.34375 445.921875 L 558.34375 432.542969 C 558.34375 429.445312 555.824219 426.925781 552.730469 426.925781 L 529.46875 426.925781 C 526.375 426.925781 523.855469 429.445312 523.855469 432.542969 L 523.855469 445.921875 L 474.375 445.921875 C 465.632812 445.921875 458.523438 453.03125 458.523438 461.773438 L 458.523438 467.347656 L 435.449219 467.347656 C 432.070312 467.347656 429.320312 470.097656 429.320312 473.480469 L 429.320312 473.753906 L 402.605469 473.753906 C 402.003906 473.753906 401.421875 473.972656 400.96875 474.367188 L 390.082031 483.863281 C 389.542969 484.339844 389.230469 485.019531 389.230469 485.738281 C 389.230469 486.457031 389.542969 487.136719 390.082031 487.609375 L 400.96875 497.109375 C 401.421875 497.503906 402.003906 497.722656 402.605469 497.722656 L 429.320312 497.722656 L 429.320312 497.996094 C 429.320312 501.375 432.070312 504.125 435.449219 504.125 L 458.523438 504.125 L 458.523438 509.703125 C 458.523438 518.441406 465.632812 525.550781 474.375 525.550781 L 483.359375 525.550781 L 483.359375 592.925781 C 483.359375 595.855469 483.359375 600.28125 482.210938 603.816406 C 481.011719 607.511719 479 609.15625 475.683594 609.15625 C 470.496094 609.15625 466.277344 613.375 466.277344 618.5625 L 466.277344 662.007812 C 466.277344 668.5 472.101562 673.988281 478.996094 673.988281 L 702.683594 673.988281 C 709.695312 673.988281 715.402344 668.28125 715.402344 661.269531 L 715.402344 618.5625 C 715.402344 604.554688 709.804688 589.292969 699.648438 575.589844 C 689.730469 562.210938 675.886719 550.828125 660.65625 543.53125 C 660.589844 543.496094 660.410156 543.398438 660.125 543.253906 C 657.144531 541.621094 655.242188 538.433594 655.242188 534.996094 C 655.242188 532.476562 656.226562 530.105469 658.003906 528.320312 C 659.789062 526.535156 662.160156 525.550781 664.679688 525.550781 L 669.4375 525.550781 C 677.542969 525.550781 684.242188 519.433594 685.171875 511.574219 L 696.773438 507.515625 C 699.558594 506.539062 701.425781 503.90625 701.425781 500.957031 L 701.425781 500.351562 L 721.480469 500.351562 L 721.480469 504.335938 C 721.480469 508.167969 724.597656 511.28125 728.425781 511.28125 L 736.421875 511.28125 L 736.421875 534.054688 C 736.421875 542.796875 744.058594 550.179688 753.097656 550.179688 C 761.828125 550.179688 768.667969 543.097656 768.667969 534.054688 L 768.667969 529.660156 C 778.292969 527.132812 788.597656 527.703125 797.894531 531.316406 C 801.84375 532.851562 804.742188 533.601562 806.757812 533.601562 C 815.335938 533.601562 822.316406 526.621094 822.316406 518.042969 C 822.316406 509.464844 815.335938 502.488281 806.757812 502.488281 "/>
</svg>
